<svg width="0" height="0" class="hidden">
    <symbol xmlns="http://www.w3.org/2000/svg" viewBox="0 0 91 91" id="ribbon">
        <path
            d="M13.012 55.145L.449 72.08l14.625 1.684a3.037 3.037 0 012.453 1.85l5.629 13.564 13.34-17.691a39.123 39.123 0 01-23.484-16.342zm65.017-.096a39.124 39.124 0 01-23.225 16.354l13.402 17.775 5.627-13.564a3.026 3.026 0 012.449-1.85l14.586-1.678-12.839-17.037z"
            fill="#647F94"></path>
        <path
            d="M45.49 16.163c-9.59 0-17.389 7.801-17.389 17.39 0 9.586 7.799 17.385 17.389 17.385 9.588 0 17.391-7.799 17.391-17.385 0-9.589-7.803-17.39-17.391-17.39z"
            fill="#6EC4A7"></path>
        <path
            d="M78.455 33.552C78.455 15.374 63.668.585 45.492.585c-18.178 0-32.965 14.789-32.965 32.967 0 18.174 14.787 32.961 32.965 32.961 18.176.001 32.963-14.786 32.963-32.961zM45.49 56.996c-12.93 0-23.445-10.516-23.445-23.444 0-12.929 10.516-23.449 23.445-23.449 12.932 0 23.447 10.521 23.447 23.449.001 12.928-10.515 23.444-23.447 23.444z"
            fill="#647F94"></path>
    </symbol>
    <symbol xmlns="http://www.w3.org/2000/svg" viewBox="0 0 128 128" id="crown">
        <title></title>
        <path
            d="M73.87 65.49l22-24.85a2.22 2.22 0 013.47 0l17.54 24.85m-105.74 0l17.54-24.86a2.22 2.22 0 013.47 0l22 24.85">
        </path>
        <path
            d="M118.71 42.91L96.14 60.78 65.71 24a2.22 2.22 0 00-3.41 0L31.86 60.78 9.29 42.91a2.22 2.22 0 00-3.59 1.93L10.63 102a2.22 2.22 0 002.21 2h102.32a2.22 2.22 0 002.21-2l4.93-57.14a2.22 2.22 0 00-3.59-1.95z"
            fill="#f8dc25"></path>
        <path d="M115.9 69.46C104.73 90.7 88.33 96.8 70.71 99.74L31.86 104h83.3a2.22 2.22 0 002.21-2l3.79-44z"
            opacity=".5"></path>
        <path d="M9.29 42.91a2.22 2.22 0 00-3.59 1.93L10.63 102a300.29 300.29 0 011.19-57.06z" opacity=".4" fill="#fff">
        </path>
        <path
            d="M94.16 58.06l1.55-3.44a.67.67 0 011.23 0l1.55 3.44 3.44 1.55a.67.67 0 010 1.23l-3.44 1.55-1.55 3.44a.67.67 0 01-1.23 0l-1.55-3.44-3.44-1.55a.67.67 0 010-1.23z"
            fill="#fff"></path>
        <path fill="#f85565" d="M51.81 62.75V81.6L64 88.56l12.12-6.95.07-18.86L64 55.71l-12.19 7.04z"></path>
        <path opacity=".15" fill="#fff" d="M56.24 66.17v12L64 82.8l7.76-4.46V66.17L64 61.7l-7.76 4.47z"></path>
        <path fill="#393c54" opacity=".2" d="M76.12 81.61l-4.36-3.27L64 82.8v5.76l12.12-6.95z"></path>
        <path opacity=".3" fill="#fff" d="M64 55.71v5.99l-7.76 4.47-4.43-3.42L64 55.71z"></path>
    </symbol>
</svg>