<svg width="0" height="0" class="hidden">
    <symbol xmlns="http://www.w3.org/2000/svg" viewBox="0 0 496.25 421.875" id="poop">
        <path
            d="M128.228 227.035c-22.516 15.291-29.89 45.953-12.212 76.049 22.79 38.8 82.302 47.324 127.672 47.183 48.914-.151 105.577-5.498 134.334-39.967 16.241-19.467 16.411-55.834 1.11-76.048-7.749-10.238-26.74-12.183-41.077-14.433-27.983-4.392-60.376 10.254-91.539 7.23-45.61-4.425-91.439-18.248-118.288-.014z"
            fill="#88664e" fill-rule="evenodd"></path>
        <path
            d="M365.255 212.603c0 13.612-4.585 26.354-17.165 36.284-21.137 16.684-59.783 26.442-100.238 26.442-40.409 0-78.03-10.29-98.85-26.94-12.43-9.94-17.444-22.148-17.444-35.786 0-12.176 5.704-24.136 15.702-33.188 19.961-18.073 57.04-27.873 100.036-27.873 38.207 0 74.184 9.17 95.822 23.77 14.91 10.06 22.137 22.407 22.137 37.29z"
            fill="#9a7863"></path>
        <path
            d="M222.416 68.259c2.48 8.779-8.169 25.5.536 32.984 13.203 11.352 36.667 9.382 58.016 10.694 19.523 1.199 37.19 5.377 45.43 20.176 4.712 8.465 6.812 19.432 3.69 29.699-2.62 8.62-9.578 16.746-15.347 22.48-20.412 20.29-56.056 23.45-84.375 18.319-22.524-4.081-46.91-17.02-57.73-37.192-9.995-18.633-9.082-44.774.876-63.427 9.327-17.47 45.544-43.562 48.904-33.733z"
            fill="#a78674" fill-rule="evenodd"></path>
        <circle r="34.139" cy="218.986" cx="199.003" fill="#fff"></circle>
        <ellipse ry="17.763" rx="16.653" cy="232.585" cx="208.717"></ellipse>
        <circle cx="297.003" cy="218.986" r="34.139" fill="#fff"></circle>
        <ellipse cx="288.162" cy="233.264" rx="17.208" ry="17.763"></ellipse>
    </symbol>
    <symbol xmlns="http://www.w3.org/2000/svg" viewBox="0 0 91 91" id="ribbon">
        <path
            d="M13.012 55.145L.449 72.08l14.625 1.684a3.037 3.037 0 012.453 1.85l5.629 13.564 13.34-17.691a39.123 39.123 0 01-23.484-16.342zm65.017-.096a39.124 39.124 0 01-23.225 16.354l13.402 17.775 5.627-13.564a3.026 3.026 0 012.449-1.85l14.586-1.678-12.839-17.037z"
            fill="#647F94"></path>
        <path
            d="M45.49 16.163c-9.59 0-17.389 7.801-17.389 17.39 0 9.586 7.799 17.385 17.389 17.385 9.588 0 17.391-7.799 17.391-17.385 0-9.589-7.803-17.39-17.391-17.39z"
            fill="#6EC4A7"></path>
        <path
            d="M78.455 33.552C78.455 15.374 63.668.585 45.492.585c-18.178 0-32.965 14.789-32.965 32.967 0 18.174 14.787 32.961 32.965 32.961 18.176.001 32.963-14.786 32.963-32.961zM45.49 56.996c-12.93 0-23.445-10.516-23.445-23.444 0-12.929 10.516-23.449 23.445-23.449 12.932 0 23.447 10.521 23.447 23.449.001 12.928-10.515 23.444-23.447 23.444z"
            fill="#647F94"></path>
    </symbol>
    <symbol xmlns="http://www.w3.org/2000/svg" viewBox="0 0 128 128" id="crown">
        <title></title>
        <path
            d="M73.87 65.49l22-24.85a2.22 2.22 0 013.47 0l17.54 24.85m-105.74 0l17.54-24.86a2.22 2.22 0 013.47 0l22 24.85">
        </path>
        <path
            d="M118.71 42.91L96.14 60.78 65.71 24a2.22 2.22 0 00-3.41 0L31.86 60.78 9.29 42.91a2.22 2.22 0 00-3.59 1.93L10.63 102a2.22 2.22 0 002.21 2h102.32a2.22 2.22 0 002.21-2l4.93-57.14a2.22 2.22 0 00-3.59-1.95z"
            fill="#f8dc25"></path>
        <path d="M115.9 69.46C104.73 90.7 88.33 96.8 70.71 99.74L31.86 104h83.3a2.22 2.22 0 002.21-2l3.79-44z"
            opacity=".5"></path>
        <path d="M9.29 42.91a2.22 2.22 0 00-3.59 1.93L10.63 102a300.29 300.29 0 011.19-57.06z" opacity=".4" fill="#fff">
        </path>
        <path
            d="M94.16 58.06l1.55-3.44a.67.67 0 011.23 0l1.55 3.44 3.44 1.55a.67.67 0 010 1.23l-3.44 1.55-1.55 3.44a.67.67 0 01-1.23 0l-1.55-3.44-3.44-1.55a.67.67 0 010-1.23z"
            fill="#fff"></path>
        <path fill="#f85565" d="M51.81 62.75V81.6L64 88.56l12.12-6.95.07-18.86L64 55.71l-12.19 7.04z"></path>
        <path opacity=".15" fill="#fff" d="M56.24 66.17v12L64 82.8l7.76-4.46V66.17L64 61.7l-7.76 4.47z"></path>
        <path fill="#393c54" opacity=".2" d="M76.12 81.61l-4.36-3.27L64 82.8v5.76l12.12-6.95z"></path>
        <path opacity=".3" fill="#fff" d="M64 55.71v5.99l-7.76 4.47-4.43-3.42L64 55.71z"></path>
    </symbol>
</svg>